<?xml version="1.0" encoding="UTF-8" standalone="no"?>
<svg
   xmlns:dc="http://purl.org/dc/elements/1.1/"
   xmlns:cc="http://creativecommons.org/ns#"
   xmlns:rdf="http://www.w3.org/1999/02/22-rdf-syntax-ns#"
   xmlns:svg="http://www.w3.org/2000/svg"
   xmlns="http://www.w3.org/2000/svg"
   xmlns:sodipodi="http://sodipodi.sourceforge.net/DTD/sodipodi-0.dtd"
   xmlns:inkscape="http://www.inkscape.org/namespaces/inkscape"
   viewBox="0 0 64 64"
   version="1.1"
   id="svg12"
   sodipodi:docname="application-x-rdp.svg"
   inkscape:version="0.92pre2 r">
  <metadata
     id="metadata18">
    <rdf:RDF>
      <cc:Work
         rdf:about="">
        <dc:format>image/svg+xml</dc:format>
        <dc:type
           rdf:resource="http://purl.org/dc/dcmitype/StillImage" />
        <dc:title></dc:title>
      </cc:Work>
    </rdf:RDF>
  </metadata>
  <defs
     id="defs16" />
  <sodipodi:namedview
     pagecolor="#ffffff"
     bordercolor="#666666"
     borderopacity="1"
     objecttolerance="10"
     gridtolerance="10"
     guidetolerance="10"
     inkscape:pageopacity="0"
     inkscape:pageshadow="2"
     inkscape:window-width="1366"
     inkscape:window-height="713"
     id="namedview14"
     showgrid="false"
     inkscape:zoom="3.6875"
     inkscape:cx="31.132594"
     inkscape:cy="36.713412"
     inkscape:window-x="0"
     inkscape:window-y="27"
     inkscape:window-maximized="1"
     inkscape:current-layer="layer3" />
  <g
     inkscape:groupmode="layer"
     id="layer1"
     inkscape:label="page"
     style="display:inline"
     sodipodi:insensitive="true">
    <path
       d="M 10.672,0 C 9.297,0 8,1.355 8,2.789 v 58.42 c 0,1.355 1.375,2.789 2.672,2.789 h 42.656 c 1.297,0 2.672,-1.434 2.672,-2.789 v -43.21 l -18,-18 m -27.328,0"
       style="fill:#dcdcdc;fill-opacity:1;fill-rule:nonzero;stroke:none"
       id="path2"
       inkscape:connector-curvature="0" />
    <path
       d="M 42,18 56,32 V 18 Z m 0,0"
       style="fill:#000000;fill-opacity:0.19599998;fill-rule:nonzero;stroke:none"
       id="path4"
       inkscape:connector-curvature="0" />
    <path
       d="M 38,0 55.984,18 H 40.757 c -1.348,0 -2.758,-1.426 -2.758,-2.773 M 37.999,0"
       style="fill:#ffffff;fill-opacity:0.39200003;fill-rule:nonzero;stroke:none"
       id="path6"
       inkscape:connector-curvature="0" />
  </g>
  <g
     inkscape:groupmode="layer"
     id="layer3"
     inkscape:label="old-object"
     style="display:none">
    <path
       d="m 43.25,34.574 c -2.121,-0.391 -3.188,-1.656 -3.188,-3.805 v -4.422 c 0,-1.93 -1.078,-2.918 -3.242,-2.98 v -2.086 c 1.754,0 3.129,0.43 4.133,1.305 1,0.871 1.508,2.066 1.508,3.598 v 4.586 c 0,0.973 0.277,1.688 0.84,2.137 0.566,0.453 1.469,0.688 2.699,0.707 v 2.117 c -1.16,0 -2.043,0.227 -2.637,0.676 -0.605,0.441 -0.902,1.18 -0.902,2.219 v 4.539 c 0,1.527 -0.492,2.715 -1.465,3.566 -0.977,0.863 -2.359,1.305 -4.176,1.324 v -2.098 c 1.055,-0.02 1.867,-0.266 2.422,-0.727 0.543,-0.461 0.82,-1.195 0.82,-2.215 v -4.449 c 0,-1.137 0.266,-2.01 0.789,-2.609 0.523,-0.598 1.324,-1 2.398,-1.195 v -0.188"
       style="display:inline;fill:#555555;fill-opacity:1;fill-rule:nonzero;stroke:none"
       id="path10"
       inkscape:connector-curvature="0" />
    <path
       d="m 23.906,43.02 c 0,1.02 0.277,1.754 0.82,2.215 0.566,0.461 1.387,0.707 2.465,0.727 V 48.06 C 25.382,48.04 23.98,47.599 22.996,46.755 22,45.903 21.508,44.708 21.508,43.169 V 38.63 c 0,-1.039 -0.297,-1.777 -0.902,-2.219 -0.594,-0.449 -1.469,-0.676 -2.605,-0.676 v -2.117 c 1.23,-0.02 2.125,-0.254 2.676,-0.715 0.555,-0.461 0.832,-1.168 0.832,-2.129 v -4.586 c 0,-1.551 0.512,-2.754 1.539,-3.617 1.023,-0.855 2.41,-1.285 4.145,-1.285 v 2.086 c -2.195,0.063 -3.285,1.051 -3.285,2.98 v 4.422 c 0,2.148 -1.066,3.414 -3.188,3.805 v 0.188 c 2.121,0.383 3.188,1.656 3.188,3.805 v 4.449"
       style="display:inline;fill:#555555;fill-opacity:1;fill-rule:nonzero;stroke:none"
       id="path8"
       inkscape:connector-curvature="0" />
  </g>
  <g
     inkscape:groupmode="layer"
     id="layer2"
     inkscape:label="object"
     style="display:inline">
    <path
       style="display:inline;fill:#000000;stroke-width:0.09375001"
       d="m 15.413901,20.775567 -0.275391,0.273438 -0.273438,0.273437 v 8.359375 8.357422 l 0.273438,0.27539 0.275391,0.273438 h 6.105468 6.105469 l -0.02734,2.007812 -0.0293,2.007813 -0.283203,0.40625 c -0.164977,0.237354 -0.455674,0.494013 -0.699219,0.617187 -0.384168,0.194268 -0.542317,0.210938 -2.021484,0.210938 -1.299086,0 -1.747725,0.03708 -2.347657,0.1875 -1.18319,0.300472 -1.843773,0.87151 -1.859374,1.607422 -0.0073,0.346583 0.02192,0.405139 0.226562,0.46289 0.128905,0.0378 1.057031,0.04202 2.0625,0.01367 1.671365,-0.04573 1.904496,-0.07319 2.71875,-0.322265 v 0.002 c 1.206556,-0.36926 1.885821,-0.445855 4.044922,-0.449219 l 1.84375,-0.002 -0.416016,-0.726562 c -1.371992,-2.404612 -1.827039,-5.471737 -1.208984,-8.136719 0.07862,-0.339024 0.142578,-0.635602 0.142578,-0.658203 0,-0.02268 -2.721094,-0.04102 -6.046875,-0.04102 h -6.046876 v -6.093744 -6.09375 h 11.71875 11.71875 v 2.283203 2.285156 l 0.681641,0.06055 c 0.374876,0.03402 1.007687,0.139509 1.40625,0.234375 l 0.724609,0.173825 v -3.65039 -3.652344 l -0.273438,-0.273437 -0.27539,-0.273438 H 29.396322 Z m 25.13867,8.756781 c -0.712141,0 -1.734534,0.129974 -2.378906,0.317438 -3.386984,0.98109 -5.753292,3.347389 -6.734375,6.734375 -0.186652,0.644371 -0.214844,0.948619 -0.214844,2.378906 0,1.430287 0.02818,1.734535 0.214844,2.378906 0.976089,3.369751 3.434146,5.83585 6.6875,6.707032 1.029603,0.275527 1.040571,0.276771 2.660156,0.248046 1.293241,-0.02268 1.609841,-0.0597 2.296875,-0.267578 1.663703,-0.502941 2.942937,-1.259343 4.109375,-2.425781 1.185403,-1.185411 1.976469,-2.548723 2.472656,-4.261719 0.186633,-0.644371 0.214844,-0.948619 0.214844,-2.378906 0,-1.430287 -0.02832,-1.734535 -0.214844,-2.378906 -0.979854,-3.382753 -3.35163,-5.754533 -6.734375,-6.734375 -0.644371,-0.186709 -1.572063,-0.317438 -2.378906,-0.317438 z m 0,1.631891 c 4.666657,0 8.285985,4.032439 7.769531,8.658203 -0.364572,3.26555 -2.784345,6.012056 -5.93164,6.730469 -0.941727,0.215055 -1.781823,0.27361 -2.634766,0.185547 -3.663621,-0.379238 -6.56391,-3.25693 -6.972656,-6.917969 -0.516408,-4.625348 3.102054,-8.65625 7.769531,-8.65625 z m 3.144531,2.546875 -0.96875,0.962891 c -0.533377,0.528831 -1.309009,1.328928 -1.722656,1.779296 l -0.751953,0.81836 1.673828,1.736328 c 0.920057,0.954217 1.720916,1.733846 1.78125,1.734375 0.06034,5.67e-4 0.341445,-0.258011 0.625,-0.576172 l 0.515625,-0.580078 -1.119141,-1.175781 -1.11914,-1.175782 1.148437,-1.15039 1.148438,-1.150391 -0.605469,-0.611328 z m -6.142578,3.521484 -0.5625,0.556641 c -0.309925,0.30652 -0.564453,0.586398 -0.564453,0.621094 0,0.03402 0.490807,0.57779 1.091797,1.205078 l 1.09375,1.140625 -0.458984,0.486328 c -0.252526,0.26759 -0.753316,0.792296 -1.113282,1.166015 l -0.654297,0.679688 0.59961,0.605469 0.601562,0.605469 1.69336,-1.742188 c 0.931542,-0.958904 1.703777,-1.770608 1.716797,-1.802734 0.01304,-0.03024 -0.755496,-0.836622 -1.708985,-1.789063 z"
       id="path3817"
       inkscape:connector-curvature="0"
       sodipodi:nodetypes="cccccccccccccsccccccccccssccccccccccccccccsccsccccccsccsscccssccccccccccccccccscccccccccac" />
  </g>
</svg>
